<svg xmlns="http://www.w3.org/2000/svg" viewBox="0 0 64 64" fill="none" stroke-linecap="round" stroke-linejoin="round">
<path d="M32 33 V18 M32 26 C27 24 23 20 21 14 M32 24 C37 22 41 18 43 12 M32 19 C29 15 29 11 30 7" stroke="currentColor" stroke-width="3"/>
<path d="M6 33 H58" stroke="currentColor" stroke-width="2.2"/>
<path d="M32 33 C30 40 22 44 13 50 M32 33 C33 41 38 47 46 55 M32 33 C36 37 44 38 53 41" stroke="currentColor" stroke-width="2.4" stroke-dasharray="3.4 3.2"/>
<circle cx="12" cy="50.5" r="3.3" fill="currentColor"/><circle cx="47" cy="56" r="3.3" fill="#9B2F1F"/><circle cx="54" cy="41.3" r="3.3" fill="currentColor"/>
<circle cx="21" cy="13.5" r="2.6" fill="currentColor"/><circle cx="43.5" cy="11.5" r="2.6" fill="currentColor"/><circle cx="30" cy="6.5" r="2.6" fill="currentColor"/></svg>